<svg width="820" height="560" viewBox="0 0 820 560" fill="none" xmlns="http://www.w3.org/2000/svg">
  <defs>
    <radialGradient id="g1" cx="0" cy="0" r="1" gradientUnits="userSpaceOnUse" gradientTransform="translate(415 260) rotate(58) scale(360 300)">
      <stop stop-color="#8F7BFF" stop-opacity=".54"/><stop offset="1" stop-color="#EAF0FF" stop-opacity="0"/>
    </radialGradient>
    <linearGradient id="body" x1="307" y1="147" x2="486" y2="405" gradientUnits="userSpaceOnUse"><stop stop-color="#fff"/><stop offset="1" stop-color="#EAF1FF"/></linearGradient>
    <linearGradient id="blue" x1="0" x2="1"><stop stop-color="#2E7BFF"/><stop offset="1" stop-color="#7D4DFF"/></linearGradient>
    <linearGradient id="face" x1="291" y1="165" x2="525" y2="279" gradientUnits="userSpaceOnUse"><stop stop-color="#09183B"/><stop offset="1" stop-color="#16275A"/></linearGradient>
    <filter id="shadow" x="0" y="0" width="820" height="560" filterUnits="userSpaceOnUse" color-interpolation-filters="sRGB"><feDropShadow dx="0" dy="24" stdDeviation="24" flood-color="#2B3F8C" flood-opacity=".18"/></filter>
    <filter id="soft" x="0" y="0" width="820" height="560" filterUnits="userSpaceOnUse"><feGaussianBlur stdDeviation="20"/></filter>
  </defs>
  <ellipse cx="442" cy="508" rx="318" ry="29" fill="#C8D3F8" opacity=".45"/>
  <circle cx="520" cy="255" r="175" fill="url(#g1)"/>
  <circle cx="568" cy="245" r="136" fill="#7D73F6" opacity=".34"/>

  <!-- desk -->
  <g filter="url(#shadow)">
    <path d="M260 430h420c28 0 43 32 24 53H237c-19-21-4-53 23-53z" fill="#F8FAFF" stroke="#DDE5FA"/>
  </g>

  <!-- plant -->
  <g transform="translate(160 340)">
    <path d="M45 78h68l-8 65H53l-8-65z" fill="#F1F4FC" stroke="#D9E0F3"/>
    <path d="M75 79c-31-38-26-69-10-74 16 25 19 50 10 74z" fill="#68C485"/>
    <path d="M81 78c1-45 23-70 40-63-2 37-16 57-40 63z" fill="#7ED199"/>
    <path d="M73 80c-21-24-45-29-56-17 15 23 34 26 56 17z" fill="#54B874"/>
  </g>

  <!-- robot -->
  <g filter="url(#shadow)">
    <path d="M380 122c12-57 104-55 116 2l11 54H369l11-56z" fill="url(#body)" stroke="#D9E3FA" stroke-width="3"/>
    <rect x="315" y="126" width="246" height="188" rx="88" fill="url(#body)" stroke="#D7E1F6" stroke-width="3"/>
    <rect x="354" y="164" width="169" height="93" rx="43" fill="url(#face)"/>
    <path d="M388 212c15-26 39-26 54 0" stroke="#38E7F4" stroke-width="14" stroke-linecap="round"/>
    <path d="M471 212c15-26 39-26 54 0" stroke="#38E7F4" stroke-width="14" stroke-linecap="round"/>
    <path d="M431 241c18 19 45 19 64 0" stroke="#38E7F4" stroke-width="11" stroke-linecap="round"/>
    <rect x="293" y="172" width="28" height="72" rx="14" fill="#55B9FF" stroke="#376DFF" stroke-width="4"/>
    <rect x="554" y="172" width="28" height="72" rx="14" fill="#55B9FF" stroke="#376DFF" stroke-width="4"/>
    <path d="M438 120V70" stroke="#162857" stroke-width="8" stroke-linecap="round"/>
    <circle cx="438" cy="62" r="22" fill="url(#blue)"/><circle cx="432" cy="54" r="9" fill="#4EF2FF"/>

    <path d="M344 297c-31 23-50 62-48 104 5 80 71 121 145 121 74 0 141-42 146-121 2-43-18-82-50-105-41 25-148 26-193 1z" fill="url(#body)" stroke="#D8E2F6" stroke-width="3"/>
    <circle cx="441" cy="392" r="48" fill="#102052"/>
    <path d="M423 370l18 54 22-54" stroke="url(#blue)" stroke-width="14" stroke-linecap="round" stroke-linejoin="round"/>

    <!-- left arm waving -->
    <path d="M318 306c-53-4-80-49-78-90" stroke="#EAF1FF" stroke-width="34" stroke-linecap="round"/>
    <path d="M318 306c-53-4-80-49-78-90" stroke="#142453" stroke-width="8" stroke-linecap="round" opacity=".15"/>
    <g transform="translate(196 147) rotate(-24)">
      <rect x="22" y="42" width="61" height="80" rx="29" fill="#F7FAFF" stroke="#D8E2F6" stroke-width="3"/>
      <path d="M36 54V14M52 48V6M68 54V18M82 66l31-23" stroke="#142453" stroke-width="18" stroke-linecap="round"/>
      <path d="M35 76c24 19 45 20 62 7" stroke="#142453" stroke-width="8" stroke-linecap="round" opacity=".22"/>
    </g>

    <!-- right arm -->
    <path d="M563 320c36 11 59 33 78 69" stroke="#EAF1FF" stroke-width="32" stroke-linecap="round"/>
    <path d="M563 320c36 11 59 33 78 69" stroke="#142453" stroke-width="7" stroke-linecap="round" opacity=".12"/>
  </g>

  <!-- laptop -->
  <g filter="url(#shadow)">
    <path d="M520 330h188c12 0 22 9 23 21l18 92H537l-27-100c-2-7 3-13 10-13z" fill="#3D4C75"/>
    <path d="M546 351h157l12 68H564l-18-68z" fill="#202B54"/>
    <path d="M613 366l18 40 25-40" stroke="#57DFFF" stroke-width="8" stroke-linecap="round" stroke-linejoin="round"/>
    <path d="M494 443h284c9 0 14 12 8 19l-15 17H506l-20-22c-5-6-1-14 8-14z" fill="#EAF0FF" stroke="#CCD7F4"/>
  </g>

  <!-- mug -->
  <g transform="translate(700 350)" filter="url(#shadow)">
    <rect x="0" y="20" width="82" height="90" rx="19" fill="url(#blue)"/>
    <path d="M78 41h16c18 0 25 28 9 42-9 8-19 7-25 6" stroke="#7D4DFF" stroke-width="13" stroke-linecap="round"/>
    <rect x="24" y="51" width="35" height="29" rx="13" fill="#102052"/>
    <path d="M32 63c5-8 12-8 17 0M50 63c5-8 12-8 17 0" stroke="#38E7F4" stroke-width="4" stroke-linecap="round"/>
  </g>
</svg>
