<svg width="170" height="150" viewBox="0 0 170 150" fill="none" xmlns="http://www.w3.org/2000/svg"><defs><linearGradient id="b" x1="0" x2="1"><stop stop-color="#2E7BFF"/><stop offset="1" stop-color="#7D4DFF"/></linearGradient><filter id="s"><feDropShadow dx="0" dy="10" stdDeviation="10" flood-color="#142453" flood-opacity=".18"/></filter></defs><g filter="url(#s)"><path d="M74 35V15" stroke="#12224e" stroke-width="5" stroke-linecap="round"/><circle cx="74" cy="12" r="10" fill="url(#b)"/><rect x="32" y="28" width="84" height="66" rx="30" fill="#fff" stroke="#dbe5fb" stroke-width="2"/><rect x="46" y="43" width="58" height="33" rx="15" fill="#102052"/><path d="M57 61c6-10 15-10 21 0M83 61c6-10 15-10 21 0" stroke="#38E7F4" stroke-width="5" stroke-linecap="round"/><path d="M67 75c8 8 18 8 26 0" stroke="#38E7F4" stroke-width="4" stroke-linecap="round"/><path d="M53 93c-13 13-16 31-11 46h69c5-17 0-34-13-46-16 10-31 10-45 0z" fill="#fff" stroke="#dbe5fb" stroke-width="2"/><circle cx="77" cy="117" r="18" fill="#102052"/><path d="M70 107l7 20 9-20" stroke="url(#b)" stroke-width="5" stroke-linecap="round" stroke-linejoin="round"/></g></svg>
