<svg xmlns="http://www.w3.org/2000/svg" viewBox="0 0 180 140"><use href="#x"/><defs><g id="x"><ellipse cx="82" cy="132" rx="62" ry="8" fill="#4152bd" opacity=".18"/><rect x="38" y="28" width="92" height="88" rx="36" fill="#f2f7ff" stroke="#cbd8ff"/><rect x="54" y="48" width="60" height="34" rx="17" fill="#101936"/><path d="M68 64c6-12 18-12 24 0M93 64c6-12 18-12 24 0" stroke="#35e3ff" stroke-width="6" stroke-linecap="round" fill="none"/><circle cx="84" cy="102" r="17" fill="#111936"/><path d="m75 92 9 20 10-20" stroke="#6b56f6" stroke-width="6" fill="none"/><path d="M128 58c16 0 26-12 28-27" stroke="#101936" stroke-width="10" stroke-linecap="round"/><path d="M151 28l8-14M158 32l14-8M148 22v-15" stroke="#101936" stroke-width="7" stroke-linecap="round"/><path d="M84 10v18" stroke="#101936" stroke-width="4"/><circle cx="84" cy="8" r="7" fill="#34cfff"/></g></defs></svg>
