<svg xmlns="http://www.w3.org/2000/svg" viewBox="0 0 720 560"><defs><linearGradient id="b" x1="0" x2="1"><stop stop-color="#3478ff"/><stop offset="1" stop-color="#7b4cf4"/></linearGradient><linearGradient id="m" x1=".2" y1="0" x2=".8" y2="1"><stop stop-color="#fff"/><stop offset="1" stop-color="#dce7ff"/></linearGradient><filter id="s" x="-20%" y="-20%" width="140%" height="150%"><feDropShadow dx="0" dy="22" stdDeviation="18" flood-color="#334080" flood-opacity=".22"/></filter></defs><ellipse cx="358" cy="514" rx="252" ry="26" fill="#dfe6ff" opacity=".8"/><g filter="url(#s)"><rect x="158" y="450" width="410" height="42" rx="12" fill="#cfd7ea"/><rect x="220" y="350" width="230" height="132" rx="24" fill="#2f3956"/><rect x="246" y="372" width="164" height="84" rx="10" fill="#151e3e"/><path d="M273 416h108" stroke="#34dcff" stroke-width="8" stroke-linecap="round" opacity=".45"/><path d="M435 326l112 22c17 3 28 19 25 36l-10 54c-3 17-19 28-36 25l-112-22z" fill="#39445f"/><path d="M472 360l47 9M466 388l61 12" stroke="#6ee7ff" stroke-width="6" opacity=".8"/><path d="M118 265c-34 14-48 55-31 87 20 38 71 46 103 17" fill="none" stroke="#172044" stroke-width="22" stroke-linecap="round"/><path d="M134 266c-21 8-30 34-20 54 12 23 42 28 61 10" fill="none" stroke="#edf4ff" stroke-width="34" stroke-linecap="round"/><path d="M188 284l-51-78" stroke="#162044" stroke-width="18" stroke-linecap="round"/><path d="M149 212l-15-25M174 202l-4-31M196 207l7-29" stroke="#162044" stroke-width="16" stroke-linecap="round"/><rect x="190" y="105" width="280" height="230" rx="92" fill="url(#m)" stroke="#cbd7f2" stroke-width="3"/><rect x="238" y="148" width="188" height="104" rx="48" fill="#111936"/><path d="M281 198c12-26 45-26 57 0M360 198c12-26 45-26 57 0" stroke="#32e4ff" stroke-width="14" stroke-linecap="round" fill="none"/><path d="M321 229c25 24 61 24 86 0" stroke="#32e4ff" stroke-width="12" stroke-linecap="round" fill="none"/><circle cx="190" cy="212" r="33" fill="#74ceff" stroke="#3679ff" stroke-width="6"/><circle cx="470" cy="212" r="33" fill="#74ceff" stroke="#3679ff" stroke-width="6"/><circle cx="330" cy="322" r="50" fill="#111936"/><path d="M307 300l24 49 25-49" stroke="url(#b)" stroke-width="15" stroke-linecap="round" stroke-linejoin="round" fill="none"/><path d="M330 64v39" stroke="#162044" stroke-width="9" stroke-linecap="round"/><circle cx="330" cy="54" r="18" fill="#36cfff" stroke="#3977ff" stroke-width="5"/></g></svg>
