<svg xmlns="http://www.w3.org/2000/svg" width="260" height="80" viewBox="0 0 260 80" fill="none">
  <defs>
    <linearGradient id="g" x1="10" y1="10" x2="70" y2="70" gradientUnits="userSpaceOnUse">
      <stop stop-color="#6C8BFF"/>
      <stop offset="1" stop-color="#7A5CFF"/>
    </linearGradient>
  </defs>
  <rect x="6" y="10" width="60" height="60" rx="18" fill="url(#g)"/>
  <rect x="18" y="24" width="36" height="26" rx="13" fill="#0F1A46"/>
  <circle cx="30" cy="37" r="3" fill="#67F5FF"/>
  <circle cx="42" cy="37" r="3" fill="#67F5FF"/>
  <path d="M28 45C30 48 34 50 36 50C38 50 42 48 44 45" stroke="#67F5FF" stroke-width="2.5" stroke-linecap="round"/>
  <path d="M36 16V10" stroke="#46D6FF" stroke-width="3" stroke-linecap="round"/>
  <circle cx="36" cy="8" r="3" fill="#46D6FF"/>
  <path d="M89 56V24H97L108 46L119 24H127V56H119V37L111 52H105L97 37V56H89Z" fill="#1B2A57"/>
  <path d="M137 56V24H145V56H137Z" fill="#1B2A57"/>
  <path d="M154 56V24H162L173 46L184 24H192V56H184V37L176 52H170L162 37V56H154Z" fill="#1B2A57"/>
</svg>
