<svg width="760" height="560" viewBox="0 0 760 560" fill="none" xmlns="http://www.w3.org/2000/svg">
  <defs>
    <radialGradient id="bg" cx="0" cy="0" r="1" gradientUnits="userSpaceOnUse" gradientTransform="translate(434 282) rotate(90) scale(208 272)">
      <stop stop-color="#E6E1FF"/>
      <stop offset="1" stop-color="#F4F7FF"/>
    </radialGradient>
    <linearGradient id="body" x1="420" y1="150" x2="420" y2="418" gradientUnits="userSpaceOnUse">
      <stop stop-color="#FFFFFF"/>
      <stop offset="1" stop-color="#DCE4FF"/>
    </linearGradient>
    <radialGradient id="visor" cx="0" cy="0" r="1" gradientUnits="userSpaceOnUse" gradientTransform="translate(420 233) rotate(90) scale(76 106)">
      <stop stop-color="#1B2553"/>
      <stop offset="1" stop-color="#091233"/>
    </radialGradient>
  </defs>
  <ellipse cx="408" cy="493" rx="202" ry="30" fill="#DCE3FF"/>
  <circle cx="434" cy="278" r="194" fill="url(#bg)"/>
  <circle cx="420" cy="220" r="86" fill="url(#body)" stroke="#C7D2FF" stroke-width="4"/>
  <rect x="339" y="193" width="162" height="92" rx="46" fill="url(#visor)"/>
  <circle cx="370" cy="238" r="8" fill="#5AF4FF"/>
  <circle cx="470" cy="238" r="8" fill="#5AF4FF"/>
  <path d="M378 261C388 273 401 278 420 278C439 278 452 273 462 261" stroke="#5AF4FF" stroke-width="6" stroke-linecap="round"/>
  <rect x="356" y="294" width="128" height="116" rx="54" fill="url(#body)" stroke="#C7D2FF" stroke-width="4"/>
  <circle cx="420" cy="354" r="31" fill="#5F66F1"/>
  <path d="M406 352L420 370L434 352" stroke="#A7F0FF" stroke-width="5" stroke-linecap="round" stroke-linejoin="round"/>
  <rect x="300" y="312" width="50" height="116" rx="25" fill="url(#body)" stroke="#C7D2FF" stroke-width="4" transform="rotate(-18 300 312)"/>
  <rect x="496" y="300" width="50" height="116" rx="25" fill="url(#body)" stroke="#C7D2FF" stroke-width="4" transform="rotate(15 496 300)"/>
  <circle cx="420" cy="128" r="11" fill="#5EC7FF"/>
  <rect x="416" y="138" width="8" height="24" rx="4" fill="#5EC7FF"/>
  <rect x="410" y="366" width="210" height="126" rx="18" fill="#E9EEFF" stroke="#CFD9FF" stroke-width="4"/>
  <rect x="434" y="386" width="164" height="90" rx="14" fill="#1A2452"/>
  <path d="M502 432L520 454L538 432" stroke="#64E6FF" stroke-width="6" stroke-linecap="round" stroke-linejoin="round"/>
  <circle cx="636" cy="454" r="27" fill="#8B6AFF"/>
  <circle cx="636" cy="454" r="18" fill="#2A356A"/>
  <circle cx="630" cy="452" r="2.5" fill="#66EFFF"/>
  <circle cx="642" cy="452" r="2.5" fill="#66EFFF"/>
</svg>
