<svg xmlns="http://www.w3.org/2000/svg" viewBox="0 0 96 96">
<defs><linearGradient id="g" x1="22" y1="78" x2="74" y2="18"><stop stop-color="#6C43F5"/><stop offset="1" stop-color="#A36EFF"/></linearGradient></defs>
<path fill="url(#g)" d="M53.8 10 56 20.7c2.8.8 5.4 1.9 7.8 3.3l9.1-6 8.1 8.1-6 9.1c1.4 2.4 2.5 5 3.3 7.8L89 45.2v11.6L78.3 59c-.8 2.8-1.9 5.4-3.3 7.8l6 9.1-8.1 8.1-9.1-6c-2.4 1.4-5 2.5-7.8 3.3L53.8 92H42.2L40 81.3c-2.8-.8-5.4-1.9-7.8-3.3l-9.1 6-8.1-8.1 6-9.1c-1.4-2.4-2.5-5-3.3-7.8L7 56.8V45.2L17.7 43c.8-2.8 1.9-5.4 3.3-7.8l-6-9.1 8.1-8.1 9.1 6c2.4-1.4 5-2.5 7.8-3.3L42.2 10h11.6z"/>
<circle cx="48" cy="51" r="15" fill="#fff" opacity=".95"/>
<circle cx="48" cy="51" r="7" fill="#7B4FF6"/>
</svg>