<svg width="840" height="620" viewBox="0 0 840 620" fill="none" xmlns="http://www.w3.org/2000/svg">
  <defs>
    <radialGradient id="g1" cx="50%" cy="42%" r="68%">
      <stop offset="0" stop-color="#ffffff"/>
      <stop offset="0.55" stop-color="#eef3ff"/>
      <stop offset="1" stop-color="#d8dfff"/>
    </radialGradient>
    <linearGradient id="blue" x1="120" y1="90" x2="700" y2="540" gradientUnits="userSpaceOnUse">
      <stop stop-color="#2f8cff"/>
      <stop offset="1" stop-color="#8a4dff"/>
    </linearGradient>
    <linearGradient id="screen" x1="246" y1="138" x2="594" y2="302" gradientUnits="userSpaceOnUse">
      <stop stop-color="#051534"/>
      <stop offset="1" stop-color="#101b52"/>
    </linearGradient>
    <filter id="shadow" x="80" y="20" width="700" height="580" filterUnits="userSpaceOnUse" color-interpolation-filters="sRGB">
      <feDropShadow dx="0" dy="28" stdDeviation="28" flood-color="#5364ca" flood-opacity="0.24"/>
    </filter>
    <filter id="soft" x="0" y="0" width="840" height="620" filterUnits="userSpaceOnUse">
      <feDropShadow dx="0" dy="18" stdDeviation="20" flood-color="#2d48b9" flood-opacity="0.16"/>
    </filter>
  </defs>
  <ellipse cx="430" cy="536" rx="265" ry="42" fill="#d9ddfb" opacity=".65"/>
  <circle cx="570" cy="252" r="205" fill="url(#blue)" opacity=".35"/>
  <circle cx="620" cy="260" r="142" fill="#9a7dff" opacity=".22"/>
  <g filter="url(#shadow)">
    <path d="M420 84c83 0 152 64 159 146l7 93c7 86-61 160-148 160h-36c-87 0-155-74-148-160l7-93c7-82 76-146 159-146Z" fill="url(#g1)" stroke="#d5dcff" stroke-width="3"/>
    <rect x="272" y="145" width="298" height="155" rx="62" fill="url(#screen)"/>
    <rect x="294" y="166" width="254" height="114" rx="48" stroke="#314981" stroke-opacity=".45" stroke-width="2"/>
    <path d="M340 221c12-30 51-30 63 0" stroke="#42eef9" stroke-width="14" stroke-linecap="round"/>
    <path d="M438 221c12-30 51-30 63 0" stroke="#42eef9" stroke-width="14" stroke-linecap="round"/>
    <path d="M391 250c18 19 45 19 63 0" stroke="#42eef9" stroke-width="10" stroke-linecap="round"/>
    <rect x="206" y="202" width="58" height="88" rx="29" fill="#edf3ff" stroke="#b9c6ff" stroke-width="3"/>
    <rect x="576" y="202" width="58" height="88" rx="29" fill="#edf3ff" stroke="#b9c6ff" stroke-width="3"/>
    <rect x="218" y="215" width="31" height="61" rx="15.5" fill="url(#blue)" opacity=".9"/>
    <rect x="591" y="215" width="31" height="61" rx="15.5" fill="url(#blue)" opacity=".9"/>
    <path d="M421 84V42" stroke="#151f4c" stroke-width="8" stroke-linecap="round"/>
    <circle cx="421" cy="31" r="22" fill="url(#blue)"/>
    <circle cx="413" cy="22" r="8" fill="#78f3ff" opacity=".9"/>
  </g>
  <g filter="url(#soft)">
    <path d="M313 437c19 42 63 71 108 71s89-29 108-71c-36 20-180 20-216 0Z" fill="#eef3ff" stroke="#cfd8ff" stroke-width="3"/>
    <circle cx="421" cy="413" r="58" fill="#111b49"/>
    <path d="M402 391l20 61 20-61" stroke="url(#blue)" stroke-width="17" stroke-linecap="round" stroke-linejoin="round"/>
    <path d="M262 365c-48-28-75-73-61-101 9-17 33-9 52 23l35 58-26 20Z" fill="#eef3ff" stroke="#c5ceff" stroke-width="3"/>
    <path d="M206 257c-13-23-33-44-48-35-18 10-9 46 19 77" stroke="#16214f" stroke-width="16" stroke-linecap="round"/>
    <path d="M187 254c-28-23-49-17-50 5-1 21 26 38 58 50" stroke="#16214f" stroke-width="16" stroke-linecap="round"/>
    <path d="M220 245c-4-35-21-55-39-45-18 10-9 47 16 71" stroke="#16214f" stroke-width="16" stroke-linecap="round"/>
    <path d="M541 373c52-16 101-25 141 3 44 31 37 102-14 119-50 18-127-6-170-47l43-75Z" fill="#eef3ff" stroke="#c5ceff" stroke-width="3"/>
    <rect x="533" y="343" width="200" height="127" rx="16" fill="#17205b" transform="rotate(7 533 343)"/>
    <path d="M615 390l17 48 41-66" stroke="#4deaff" stroke-width="12" stroke-linecap="round" stroke-linejoin="round"/>
  </g>
  <g>
    <rect x="142" y="94" width="145" height="70" rx="16" fill="#7364f5" opacity=".95"/>
    <path d="M287 143l24 14-22 3" fill="#7364f5" opacity=".95"/>
    <text x="166" y="122" fill="white" font-family="Inter,Arial" font-size="15" font-weight="700">Привет! 👋</text>
    <text x="166" y="146" fill="white" font-family="Inter,Arial" font-size="14">Я ViMi, ваш бот</text>
  </g>
</svg>
